<?xml version="1.0" encoding="UTF-8" standalone="no"?>
<!-- Created with Inkscape (http://www.inkscape.org/) -->

<svg xmlns:dc="http://purl.org/dc/elements/1.1/" xmlns:cc="http://creativecommons.org/ns#" xmlns:rdf="http://www.w3.org/1999/02/22-rdf-syntax-ns#" xmlns:svg="http://www.w3.org/2000/svg" xmlns="http://www.w3.org/2000/svg" xmlns:xlink="http://www.w3.org/1999/xlink" xmlns:inkscape="http://www.inkscape.org/namespaces/inkscape" version="1.1" width="630" height="630" id="svg5565">
  <metadata>
    <rdf:RDF xmlns:cc="http://web.resource.org/cc/" xmlns:dc="http://purl.org/dc/elements/1.1/" xmlns:rdf="http://www.w3.org/1999/02/22-rdf-syntax-ns#">
      <cc:Work rdf:about="">
        <dc:title>Fox</dc:title>
        <dc:description>Head of the fox</dc:description>
        <dc:subject>
          <rdf:Bag>
            <rdf:li>fox</rdf:li>
            <rdf:li>orange</rdf:li>
            <rdf:li>yellow</rdf:li>
            <rdf:li>cartoon</rdf:li>
            <rdf:li>head</rdf:li>
            <rdf:li>color</rdf:li>
          </rdf:Bag>
        </dc:subject>
        <dc:publisher>
          <cc:Agent rdf:about="http://www.openclipart.org">
            <dc:title>Open Clip Art Library</dc:title>
          </cc:Agent>
        </dc:publisher>
        <dc:creator>
          <cc:Agent>
            <dc:title>Jakub Jankiewicz</dc:title>
          </cc:Agent>
        </dc:creator>
        <dc:rights>
          <cc:Agent>
            <dc:title>Jakub Jankiewicz</dc:title>
          </cc:Agent>
        </dc:rights>
        <dc:date></dc:date>
        <dc:format>image/svg+xml</dc:format>
        <dc:type rdf:resource="http://purl.org/dc/dcmitype/StillImage"/>
        <cc:license rdf:resource="http://web.resource.org/cc/PublicDomain"/>
        <dc:language>pl</dc:language>
      </cc:Work>
      <cc:License rdf:about="http://web.resource.org/cc/PublicDomain">
        <cc:permits rdf:resource="http://web.resource.org/cc/Reproduction"/>
        <cc:permits rdf:resource="http://web.resource.org/cc/Distribution"/>
        <cc:permits rdf:resource="http://web.resource.org/cc/DerivativeWorks"/>
      </cc:License>
    </rdf:RDF>
  </metadata>
    <defs id="defs5567">
        <linearGradient id="linearGradient4118">
            <stop id="stop4120" style="stop-color:#1274f4;stop-opacity:1" offset="0" />
            <stop id="stop4122" style="stop-color:#00132c;stop-opacity:1" offset="1" />
        </linearGradient>
        <inkscape:path-effect effect="skeletal" id="path-effect3997" />
        <linearGradient id="linearGradient3145">
            <stop id="stop3147" style="stop-color:#ab2302;stop-opacity:1" offset="0" />
            <stop id="stop3149" style="stop-color:#ab2302;stop-opacity:0" offset="1" />
        </linearGradient>
        <inkscape:path-effect effect="skeletal" id="path-effect4188" />
        <inkscape:path-effect effect="skeletal" id="path-effect4208" />
        <linearGradient x1="269.20566" y1="124.53707" x2="297.995" y2="201.81374" id="linearGradient3933-2" xlink:href="#linearGradient3935-9" gradientUnits="userSpaceOnUse" gradientTransform="matrix(2.3293413,0,0,2.3293413,-962.48526,215.67046)" />
        <linearGradient id="linearGradient3935-9">
            <stop id="stop3937-2" style="stop-color:#ff8700;stop-opacity:1" offset="0" />
            <stop id="stop3939-8" style="stop-color:#d33b00;stop-opacity:1" offset="1" />
        </linearGradient>
        <linearGradient x1="288.90363" y1="104.8391" x2="288.90363" y2="171.04311" id="linearGradient3056" xlink:href="#linearGradient3050" gradientUnits="userSpaceOnUse" gradientTransform="matrix(2.3293413,0,0,2.3293413,-888.36609,215.67046)" />
        <linearGradient id="linearGradient3050">
            <stop id="stop3052" style="stop-color:#eb6a0f;stop-opacity:1" offset="0" />
            <stop id="stop3054" style="stop-color:#a11700;stop-opacity:1" offset="1" />
        </linearGradient>
        <inkscape:path-effect effect="skeletal" id="path-effect3960" />
        <inkscape:path-effect effect="skeletal" id="path-effect4084" />
        <inkscape:path-effect effect="skeletal" id="path-effect4161" />
        <linearGradient x1="269.20566" y1="124.53707" x2="297.995" y2="201.81374" id="linearGradient3110" xlink:href="#linearGradient3935-9" gradientUnits="userSpaceOnUse" gradientTransform="matrix(2.3293413,0,0,2.3293413,-962.48526,215.67046)" />
        <linearGradient x1="288.90363" y1="104.8391" x2="288.90363" y2="171.04311" id="linearGradient3112" xlink:href="#linearGradient3050" gradientUnits="userSpaceOnUse" gradientTransform="matrix(2.3293413,0,0,2.3293413,-888.36609,215.67046)" />
        <linearGradient x1="288.90363" y1="104.8391" x2="288.90363" y2="171.04311" id="linearGradient3130" xlink:href="#linearGradient3050" gradientUnits="userSpaceOnUse" gradientTransform="matrix(2.3293413,0,0,2.3293413,-222.25138,326.95795)" />
        <linearGradient x1="269.20566" y1="124.53707" x2="297.995" y2="201.81374" id="linearGradient3136" xlink:href="#linearGradient3935-9" gradientUnits="userSpaceOnUse" gradientTransform="matrix(2.3293413,0,0,2.3293413,-296.37055,326.95795)" />
        <linearGradient x1="333.35034" y1="268.36539" x2="348.50262" y2="267.86029" id="linearGradient3151" xlink:href="#linearGradient3145" gradientUnits="userSpaceOnUse" />
        <radialGradient cx="557.82336" cy="557.85718" r="197.82341" fx="557.82336" fy="557.85718" id="radialGradient4124" xlink:href="#linearGradient4118" gradientUnits="userSpaceOnUse" gradientTransform="matrix(0.91644797,-0.85781138,1.2126087,1.2954976,-629.85512,313.66175)" />
        <linearGradient id="linearGradient4118-0">
            <stop id="stop4120-6" style="stop-color:#2994d1;stop-opacity:1" offset="0" />
            <stop id="stop4122-1" style="stop-color:#0d426c;stop-opacity:1" offset="1" />
        </linearGradient>
        <radialGradient cx="557.82336" cy="557.85718" r="197.82341" fx="557.82336" fy="557.85718" id="radialGradient4141" xlink:href="#linearGradient4118-0" gradientUnits="userSpaceOnUse" gradientTransform="matrix(0.91644797,-0.85781138,1.2126087,1.2954976,-629.85512,313.66175)" />
        <linearGradient x1="324.28574" y1="755.21692" x2="577.2334" y2="971.13751" id="linearGradient4159" xlink:href="#linearGradient4118-0" gradientUnits="userSpaceOnUse" />
        <linearGradient x1="324.28574" y1="755.21692" x2="577.2334" y2="971.13751" id="linearGradient4167" xlink:href="#linearGradient4118-0" gradientUnits="userSpaceOnUse" />
        <clipPath id="clipPath4181">
            <path d="m 230,895.29725 0,211.34375 444.28125,0 0,-199.09375 c -0.65963,0.89686 -1.35967,1.78441 -2.1875,2.6875 a 12.858428,12.858428 0 0 1 -9.375,4.15625 c -0.0936,0.65982 -0.65625,3.41957 -0.65625,3.59375 -0.0112,-0.01 6.7e-4,0.019 0,0.0312 0.0112,0.0147 0.0405,0.0149 0.0625,0.0625 a 12.858428,12.858428 0 0 1 -6.28125,17.03125 c -4.21056,1.95491 -9.17992,3.875 -15.6875,3.875 -3.86313,0 -8.84955,-0.52595 -13.375,-4.4375 -4.52545,-3.91155 -5.96875,-9.94516 -5.96875,-14 0,-2.64896 0.29496,-4.95526 0.6875,-7.21875 -0.28342,0.0203 -0.62769,0.0108 -0.90625,0.0312 -4.34831,0.31982 -7.38584,0.58028 -10.5,0.6875 a 12.858428,12.858428 0 0 1 -2.53125,13.3125 c -5.72825,6.21923 -13.50204,10.71875 -22.46875,10.71875 -6.63275,0 -11.58021,-3.26388 -15.15625,-7.0625 a 12.858428,12.858428 0 0 1 -9.75,7.15625 c -1.82405,0.26058 -3.22914,0.25 -4.15625,0.25 -4.55329,0 -9.04787,-0.7905 -13.46875,-3.46875 -2.01823,-1.22268 -4.02743,-3.20787 -5.65625,-5.5625 -7.33048,5.40247 -16.15166,8.90625 -25.9375,8.90625 -8.87147,0 -17.67947,-3.03324 -23.9375,-9.28125 -3.92277,-3.91649 -6.47124,-8.92031 -7.9375,-14.34375 -0.75886,2.61701 -1.49107,5.23701 -2.4375,7.96875 -5.04262,14.53462 -16.30679,26.24975 -30.875,31.75 a 12.858428,12.858428 0 0 1 -1.40625,0.4375 c -0.0736,0.0184 -1.1818,0.59375 -4.25,0.59375 -2.95391,0 -7.43356,-0.96485 -10.75,-4.34375 -3.31644,-3.3789 -4.09375,-7.65756 -4.09375,-10.1875 a 12.858428,12.858428 0 0 1 0.125,-1.8125 c 0.10402,-0.72815 0.46628,-1.54522 0.75,-2.34375 -4.26786,1.01236 -8.63921,1.5625 -13.03125,1.5625 -8.40901,0 -16.66761,-1.77 -23.3125,-7.09375 -6.64489,-5.32375 -10.24698,-13.91282 -10.65625,-22.34375 -0.0396,-0.81685 0.004,-1.6229 0,-2.4375 -2.27084,4.94382 -4.67102,10.5539 -7.25,17 -0.0168,0.0421 -0.0144,0.0829 -0.0312,0.125 l -0.0312,0 c -1.19264,3.038 -3.20997,7.10273 -7.34375,10.15625 -4.18481,3.09122 -9.32102,4.0625 -13.75,4.0625 -3.61761,0 -7.01546,-0.4886 -11.03125,-1.21875 A 12.858428,12.858428 0 0 1 335.375,934.891 c -3.24736,1.73679 -6.90597,2.96875 -11.65625,2.96875 -5.3851,0 -11.71091,-1.85611 -16.15625,-6.34375 -4.35529,-4.39673 -6.1865,-10.19743 -6.59375,-15.625 -0.002,-0.0302 0.002,-0.0635 0,-0.0937 -0.006,-0.0819 -0.026,-0.16826 -0.0312,-0.25 l 0.0312,0 c -0.33031,-3.94712 -0.17653,-8.7663 0.96875,-14.9375 -1.58249,0.0999 -3.4679,0.12186 -5.25,0.1875 -1.91902,9.0157 -2.94636,15.06933 -3,16.59375 0.19176,0.67141 1.03125,1.51124 1.03125,5.9375 a 12.858428,12.858428 0 0 1 -5.5,10.5625 c -6.7695,4.70921 -12.45371,4.96875 -18.28125,4.96875 -4.22118,0 -9.42103,-0.49357 -14.15625,-4.625 -4.73522,-4.13143 -5.96875,-10.31406 -5.96875,-14.25 0,-4.41734 0.85788,-7.912 1.5625,-10.84375 0.0131,-0.0582 0.0182,-0.12924 0.0312,-0.1875 0.9485,-4.22876 1.83502,-8.65257 3.03125,-13.4375 a 12.858428,12.858428 0 0 1 0.0312,-0.15625 c 0.006,-0.0232 0.0252,-0.0393 0.0312,-0.0625 l -25.5,0 z m 95.75,6.0625 c -0.47609,0.23375 -0.44577,0.36855 -0.28125,0.25 0.0451,-0.0325 0.21535,-0.199 0.28125,-0.25 z" id="path4183" style="color:#000000;fill:#b3b3b3;fill-opacity:1;fill-rule:nonzero;stroke:none;stroke-width:1;marker:none;visibility:visible;display:inline;overflow:visible;enable-background:accumulate" />
        </clipPath>
        <linearGradient x1="269.20566" y1="124.53707" x2="297.995" y2="201.81374" id="linearGradient4212" xlink:href="#linearGradient3935-9" gradientUnits="userSpaceOnUse" gradientTransform="matrix(2.3293413,0,0,2.3293413,-296.37055,326.95795)" />
        <linearGradient x1="288.90363" y1="104.8391" x2="288.90363" y2="171.04311" id="linearGradient4214" xlink:href="#linearGradient3050" gradientUnits="userSpaceOnUse" gradientTransform="matrix(2.3293413,0,0,2.3293413,-222.25138,326.95795)" />
    </defs>
    <g transform="translate(-135,-422.35974)" id="layer1">
        <g transform="matrix(1.7704377,0,0,1.7704377,-346.88802,-477.18299)" id="g4185">
            <use transform="matrix(-1,0,0,1,898.50752,3.6603933e-6)" id="use4190" x="0" y="0" width="744.09448" height="1052.3622" xlink:href="#g4183" />
            <g transform="matrix(2.328176,-0.07367087,0.07367087,2.328176,-234.31189,351.07329)" id="g4183">
                <path d="m 251.40165,127.06238 c -0.006,-0.007 -0.012,-0.0133 -0.0179,-0.0199 -0.0162,-0.0181 -0.0322,-0.0363 -0.0482,-0.0547 -0.0607,-0.0696 -0.12023,-0.14026 -0.17908,-0.21145 -0.21929,-0.26527 -0.42907,-0.53832 -0.63239,-0.81602 0,0 0,0 0,0 -0.71434,-0.97567 -1.34843,-2.00939 -1.90875,-3.08095 0,0 0,0 0,-1e-5 -1.76452,-3.37448 -2.76947,-7.16127 -2.76947,-10.96925 0,0 0,0 0,0 0,-4.14687 1.36713,-8.20565 3.338,-11.85425 0.68893,-1.275384 1.45597,-2.508816 2.29943,-3.687719 0,0 0,0 0,0 0,-1e-6 0,-2e-6 0,-3e-6 0.24624,-0.34416 0.49898,-0.683719 0.76102,-1.016006 0.0709,-0.08984 0.14237,-0.17916 0.21504,-0.267542 0,0 0,0 0,0 0,-10e-7 0,-2e-6 0,-3e-6 0.0191,-0.02324 0.0383,-0.04641 0.0576,-0.06946 0.007,-0.0083 0.0141,-0.01676 0.0211,-0.025 3.22454,-0.05292 6.47013,0.553788 9.40449,1.891584 2.24235,1.022304 4.26749,2.456842 6.25293,3.916729 2.10034,1.54437 3.64022,3.7398 4.88496,6.03046 l 0,0 1.681,3.69216 -11.86926,6.81864 c 0,0 0,0 0,0 0,0 0,0 0,0 -2.93216,2.06595 -5.73857,4.31097 -8.39278,6.72361 0,0 0,0 0,0 0,0 0,0 -1e-5,0 -0.77823,0.70741 -1.54349,1.42925 -2.2887,2.17137 0,0 0,0 -1e-5,0 -0.20155,0.20071 -0.40163,0.4029 -0.59917,0.60757 -0.0518,0.0537 -0.10345,0.10753 -0.15476,0.16169 -0.0183,0.0193 -0.0369,0.0389 -0.055,0.0584 l -9e-5,9e-5" id="path3007" style="color:#000000;fill:#000000;fill-opacity:1;fill-rule:nonzero;stroke:none;stroke-width:1;marker:none;visibility:visible;display:inline;overflow:visible;enable-background:accumulate" />
                <path d="m 252.87882,124.40105 c -0.005,-0.006 -0.0102,-0.0113 -0.0153,-0.0169 -0.0136,-0.0152 -0.0271,-0.0305 -0.0405,-0.0459 -0.0508,-0.0583 -0.10058,-0.11737 -0.14982,-0.17695 -0.18307,-0.22153 -0.35821,-0.44955 -0.52795,-0.68146 0,0 0,0 0,0 0,0 0,0 0,0 -0.59574,-0.81396 -1.12456,-1.67631 -1.59183,-2.57022 0,0 0,-1e-5 0,-1e-5 0,0 0,0 0,0 -1.47084,-2.81384 -2.3085,-5.97126 -2.3085,-9.14634 0,0 0,0 0,0 0,-3.4578 1.13967,-6.84219 2.78275,-9.88466 0,0 0,0 0,0 0,-10e-6 0,-10e-6 0,-10e-6 0.57454,-1.06387 1.21425,-2.092743 1.91769,-3.076149 0,0 0,0 0,0 0,-1e-6 0,-2e-6 1e-5,-3e-6 0.20552,-0.287322 0.41649,-0.570801 0.6352,-0.848213 0,-10e-7 1e-5,-2e-6 1e-5,-4e-6 0,0 0,0 0,0 0,-10e-7 0,-2e-6 0,-3e-6 0.0592,-0.07513 0.11904,-0.149819 0.17979,-0.223728 0.016,-0.0195 0.0321,-0.03894 0.0483,-0.05828 0.006,-0.0071 0.0119,-0.01423 0.0179,-0.02123 4.7443,-0.07785 9.23655,2.033632 13.05926,4.84446 0,0 0,0 0,0 1.75107,1.28755 3.03506,3.11771 4.07303,5.02733 0,0 0,0 0,0 0,0 0,0 0,0 0.38368,0.70587 0.73271,1.4306 1.04518,2.17076 0,0 0,0 0,0 0,0 0,0 0,0 0.0924,0.21894 0.18167,0.43924 0.26619,0.66134 0,0 0,0 0,0 0.0231,0.0606 0.0458,0.1214 0.0679,0.18238 0.008,0.0221 0.0164,0.0452 0.0241,0.0674 l -9.89968,5.68722 c 0,0 0,0 0,0 -2.44465,1.72246 -4.7845,3.59417 -6.99752,5.60556 0,1e-5 0,1e-5 -1e-5,1e-5 0,0 0,0 0,0 -0.64927,0.59012 -1.28771,1.19228 -1.90945,1.81135 0,0 0,0 0,0 -0.16837,0.16765 -0.33553,0.33655 -0.50055,0.5075 0,0 0,0 0,0 0,0 0,0 0,0 -0.0434,0.045 -0.0866,0.0901 -0.12963,0.13542 0,0 0,0 0,0 -0.0154,0.0163 -0.0312,0.0329 -0.0465,0.0494 l -1.1e-4,1.1e-4" id="path3009" style="color:#000000;fill:#e75c0b;fill-opacity:1;fill-rule:nonzero;stroke:none;stroke-width:1;marker:none;visibility:visible;display:inline;overflow:visible;enable-background:accumulate" />
                <path d="m 257.00765,121.20438 c -0.5826,-0.89498 -1.14539,-1.81516 -1.48444,-2.82781 -0.4952,-1.47899 -0.59226,-3.06151 -0.59226,-4.62121 0,-1.61517 0.005,-3.27457 0.57396,-4.78607 0.47417,-1.25889 1.44862,-2.26695 2.53141,-3.06521 0,0 0,0 0,0 1.3755,-0.0225 2.77513,0.12318 4.04564,0.65075 0.93647,0.38887 1.76633,0.98975 2.58326,1.59044 1.6886,1.24163 2.92484,3.01165 3.68324,4.96559 0,0 0,0 0,0 l -5.50763,3.16395 -5.83302,4.92941 c -1.1e-4,1.1e-4 -1.6e-4,1.6e-4 -1.6e-4,1.6e-4 z" id="path4177" style="color:#000000;fill:#ab2302;fill-opacity:1;fill-rule:nonzero;stroke:none;stroke-width:1;marker:none;visibility:visible;display:inline;overflow:visible;enable-background:accumulate" />
            </g>
            <path d="m 524.79718,717.34349 c 13.30601,-12.13196 38.3403,-13.65758 41.17732,-16.17679 2.76009,-2.45091 -2.64711,-24.11816 -9.70608,-41.7656 -7.05898,-17.64742 -15.88269,-34.11833 -47.64805,-58.82472 -24.88853,-19.35773 -49.56408,-18.23569 -58.95892,-18.23569 -10.57132,0 -34.07039,-1.12204 -58.95891,18.23569 -31.76537,24.70639 -42.87154,40.2819 -47.61643,58.68696 -4.7449,18.40509 -10.75508,42.20948 -8.90464,44.09113 2.39454,2.43497 27.03825,1.85706 40.34426,13.98902 10.00021,9.11783 17.35329,16.17681 24.41227,36.76546 7.05897,20.58868 14.7062,34.11838 26.47114,42.94208 11.76495,8.82371 22.35341,11.76495 44.11857,8.82371 21.76515,-2.94123 37.2712,-1.34918 44.26563,1.17651 5.3942,1.94784 15.94968,11.0912 17.94155,9.55901 2.00544,-1.54266 -3.7791,-35.19071 -7.79431,-46.61863 -2.50711,-7.13568 -12.71583,-22.227 -19.95745,-28.03526 7.08895,-12.57756 13.03465,-17.5199 20.81405,-24.61288 z" id="path4008" style="color:#000000;fill:url(#linearGradient4212);fill-opacity:1;fill-rule:nonzero;stroke:none;stroke-width:1;marker:none;visibility:visible;display:inline;overflow:visible;enable-background:accumulate" />
            <path d="m 449.25405,579.98265 c 0,0 -22.07738,0.57234 -34.43058,8.80782 -12.35319,8.23546 -27.0331,18.76813 -35.0649,41.70977 -8.0318,22.94166 -5.84415,35.98655 -5.84415,47.7515 15.2105,6.29453 31.11413,19.38883 36.32316,28.97118 4.08399,7.51271 5.49082,13.94833 9.60854,23.94854 4.11774,10.00021 17.93709,9.97249 29.40793,9.97249 11.47084,0 25.2902,0.0277 29.40794,-9.97249 4.11771,-10.00021 5.52454,-16.43583 9.60853,-23.94854 5.20903,-9.58235 21.11266,-22.67665 36.32317,-28.97118 0,-11.76495 2.18764,-24.80984 -5.84416,-47.7515 -8.0318,-22.94164 -22.71171,-33.47431 -35.0649,-41.70977 -12.3532,-8.23548 -34.43058,-8.80782 -34.43058,-8.80782 z" id="path3900" style="color:#000000;fill:#000000;fill-opacity:1;fill-rule:nonzero;stroke:none;stroke-width:1;marker:none;visibility:visible;display:inline;overflow:visible;enable-background:accumulate" />
            <path d="m 379.5194,675.26727 c 0,0 26.7717,13.25209 35.00715,27.95829 4.11772,7.35308 7.21144,15.18584 8.82374,20.0004 4.11611,12.29131 13.98005,12.30148 24.85344,12.3532 -4.68708,-8.85446 -3.33417,-15.01869 1.02943,-19.41217 l -42.35381,-38.5302 z" id="path3855" style="color:#000000;fill:#ffffff;fill-opacity:1;fill-rule:nonzero;stroke:none;stroke-width:1;marker:none;visibility:visible;display:inline;overflow:visible;enable-background:accumulate" />
            <path d="m 518.94692,675.26727 c 0,0 -26.7717,13.25209 -35.00716,27.95829 -4.11772,7.35308 -7.21143,15.18584 -8.82373,20.0004 -4.11613,12.29131 -13.98003,12.30148 -24.85344,12.3532 4.68707,-8.85446 3.33417,-15.01869 -1.02943,-19.41217 l 42.3538,-38.5302 z" id="path3861" style="color:#000000;fill:#ffffff;fill-opacity:1;fill-rule:nonzero;stroke:none;stroke-width:1;marker:none;visibility:visible;display:inline;overflow:visible;enable-background:accumulate" />
            <path d="m 445.03212,585.8788 c -20.55355,0.36405 -34.26431,7.74587 -50.80876,26.49625 -19.54142,22.14696 -14.70396,62.89222 -14.70396,62.89222 21.28419,0.75284 48.88253,33.48391 57.06886,48.8297 0,0 8.37305,2.32934 12.66579,2.32934 4.29274,0 12.66579,-2.32934 12.66579,-2.32934 17.99864,-24.24802 35.21797,-43.93079 57.06887,-48.8297 0,0 4.83746,-40.74526 -14.70397,-62.89222 -17.64742,-20.0004 -32.08738,-27.01535 -55.03069,-26.49625 -1.43394,0.0324 -2.85169,-0.0242 -4.22193,0 z" id="path3023" style="color:#000000;fill:url(#linearGradient4214);fill-opacity:1;fill-rule:nonzero;stroke:none;stroke-width:1;marker:none;visibility:visible;display:inline;overflow:visible;enable-background:accumulate" />
            <path d="m 449.27453,718.91398 c -4.29822,-0.005 -8.76538,1.27822 -12.13142,3.26163 -1.34513,0.79261 -0.99482,1.62614 0,2.2494 7.19966,4.51131 5.60409,11.47201 12.13142,11.47201 6.52732,0 4.93175,-6.9607 12.13142,-11.47201 0.99481,-0.62326 1.26977,-1.45679 -0.0752,-2.2494 -3.36602,-1.98341 -7.78149,-3.25846 -12.05607,-3.26163 z" id="path3015" style="color:#000000;fill:#000000;fill-opacity:1;fill-rule:nonzero;stroke:none;stroke-width:1;marker:none;visibility:visible;display:inline;overflow:visible;enable-background:accumulate" />
            <path d="m 279.24406,146.35005 a 3.2829957,4.5141191 0 1 1 -6.566,0 3.2829957,4.5141191 0 1 1 6.566,0 z" transform="matrix(2.0172688,-1.1646707,1.1646707,2.0172688,-307.61056,692.70998)" id="path3028" style="color:#000000;fill:#000000;fill-opacity:1;fill-rule:nonzero;stroke:none;stroke-width:1;marker:none;visibility:visible;display:inline;overflow:visible;enable-background:accumulate" />
            <path d="m 276.21359,146.88669 a 1.1995561,1.1995561 0 1 1 -2.39911,0 1.1995561,1.1995561 0 1 1 2.39911,0 z" transform="matrix(2.3293413,0,0,2.3293413,-223.13376,326.95795)" id="path3030" style="color:#000000;fill:#ffffff;fill-opacity:1;fill-rule:nonzero;stroke:none;stroke-width:1;marker:none;visibility:visible;display:inline;overflow:visible;enable-background:accumulate" />
            <path d="m 276.21359,146.88669 a 1.1995561,1.1995561 0 1 1 -2.39911,0 1.1995561,1.1995561 0 1 1 2.39911,0 z" transform="matrix(2.3293413,0,0,1.4711629,-224.75144,446.39513)" id="path3032" style="color:#000000;fill:#ffffff;fill-opacity:1;fill-rule:nonzero;stroke:none;stroke-width:1;marker:none;visibility:visible;display:inline;overflow:visible;enable-background:accumulate" />
            <path d="m 279.24406,146.35005 a 3.2829957,4.5141191 0 1 1 -6.566,0 3.2829957,4.5141191 0 1 1 6.566,0 z" transform="matrix(-2.0172688,-1.1646707,-1.1646707,2.0172688,1205.7828,692.70998)" id="path3034" style="color:#000000;fill:#000000;fill-opacity:1;fill-rule:nonzero;stroke:none;stroke-width:1;marker:none;visibility:visible;display:inline;overflow:visible;enable-background:accumulate" />
            <path d="m 276.21359,146.88669 a 1.1995561,1.1995561 0 1 1 -2.39911,0 1.1995561,1.1995561 0 1 1 2.39911,0 z" transform="matrix(2.3293413,0,0,2.3293413,-164.89724,326.95795)" id="path3036" style="color:#000000;fill:#ffffff;fill-opacity:1;fill-rule:nonzero;stroke:none;stroke-width:1;marker:none;visibility:visible;display:inline;overflow:visible;enable-background:accumulate" />
            <path d="m 276.21359,146.88669 a 1.1995561,1.1995561 0 1 1 -2.39911,0 1.1995561,1.1995561 0 1 1 2.39911,0 z" transform="matrix(2.3293413,0,0,1.4711629,-164.16194,446.39513)" id="path3038" style="color:#000000;fill:#ffffff;fill-opacity:1;fill-rule:nonzero;stroke:none;stroke-width:1;marker:none;visibility:visible;display:inline;overflow:visible;enable-background:accumulate" />
            <path d="m 395.71429,320 c 17.85978,36.78367 32.5977,58.51658 63.21428,56.78572 27.72078,-1.56715 45.45196,-4.70374 72.14286,0.71428 l 0.71429,16.42857 -13.57143,-6.78571 -13.57143,-4.64286 -21.78572,-0.71429 -26.07142,2.14286 -13.92858,-0.35714 -17.5,-8.57143 -16.78571,-19.28571 -12.14286,-30 z" transform="translate(0,422.35975)" id="path3114" style="color:#000000;fill:#ab2202;fill-opacity:1;fill-rule:nonzero;stroke:none;stroke-width:1;marker:none;visibility:visible;display:inline;overflow:visible;enable-background:accumulate" />
            <path d="m 504.06612,317.35779 c 0,0 4.19321,-11.47715 11.11168,-19.1929 24.39043,-27.20123 42.172,-21.3678 41.06654,-32.55205 -0.56463,-5.71251 -1.09681,-35.3256 -31.88723,-73.15863 22.0895,17.88348 34.15215,42.47537 39.81309,68.33503 l 3.03045,17.1726 -18.68782,3.53553 -20.20305,10.6066 z" transform="translate(0,422.35975)" id="path3921" style="color:#000000;fill:#ab2202;fill-opacity:1;fill-rule:nonzero;stroke:none;stroke-width:1;marker:none;visibility:visible;display:inline;overflow:visible;enable-background:accumulate" />
            <path d="m 494.82235,735.87328 c 0,0 0.45031,0.17198 1.33657,0.58167 0.88626,0.4097 2.20891,1.06011 3.9027,2.09781 1.69378,1.0377 3.75834,2.46958 6.07627,4.44955 2.31794,1.97996 4.88745,4.51936 7.55465,7.64321 1.99523,2.32349 4.10253,4.98917 6.12877,8.09554 2.02625,3.10636 3.97575,6.65327 5.48995,10.76898 1.3557,3.70928 2.37842,7.76531 3.36412,12.02362 1.00401,4.32418 1.94226,8.9351 2.79567,13.83219 0.0795,0.45636 0.15806,0.91286 0.23562,1.3695 0.7518,4.42004 1.44234,8.88101 1.85743,13.39809 0.13641,1.45865 0.25512,2.97293 0.22198,4.53861 -0.005,0.4693 -0.0362,1.00982 -0.14913,1.60908 1e-5,1e-5 1e-5,3e-5 1e-5,4e-5 0.0911,0.23943 -0.16023,0.83447 -0.89747,1.63481 -4e-5,4e-5 -7e-5,8e-5 -1.1e-4,1.2e-4 -1.10211,0.60268 -1.99074,0.65996 -2.47841,0.41339 -2e-5,0 -4e-5,-10e-6 -5e-5,-10e-6 -0.84562,-0.19844 -1.55322,-0.50903 -2.14465,-0.815 -1.80023,-0.8978 -3.4239,-1.96996 -4.98345,-2.99645 -1e-5,-10e-6 -2e-5,-10e-6 -3e-5,-2e-5 -1.82817,-1.19781 -3.61195,-2.408 -5.41635,-3.52845 -1.53956,-0.94424 -2.99315,-1.85116 -4.48738,-2.37563 -10e-6,0 -2e-5,-10e-6 -4e-5,-10e-6 -5.00278,-1.8239 -10.53533,-2.25737 -16.10688,-2.52996 -9.10928,-0.41833 -18.27465,0.23472 -27.36789,1.46717 -8.63195,1.19248 -17.61503,1.85097 -26.39522,-0.005 -1e-5,0 -2e-5,-1e-5 -3e-5,-1e-5 -6.98888,-1.51758 -13.37924,-4.90331 -18.98369,-9.11625 -6.30911,-4.73855 -11.42494,-10.8635 -15.45451,-17.53859 -4.9871,-8.2574 -8.56117,-17.21478 -11.64551,-26.21186 -2.74241,-7.94432 -5.96741,-15.7191 -10.72723,-22.41718 -3.59346,-5.09717 -8.23621,-9.46656 -13.16104,-13.53974 -7.28075,-6.02448 -16.34285,-9.7941 -25.73026,-11.47022 -3.10489,-0.55391 -6.30353,-0.86931 -9.54948,-1.2507 -1.02966,-0.11637 -2.14081,-0.24764 -3.30259,-0.52705 -0.60707,-0.0168 -1.59268,-0.39339 -2.61065,-1.44421 -0.74949,-1.29433 -0.83157,-2.31015 -0.7125,-2.78546 0,-10e-6 0,-3e-5 0,-4e-5 -0.042,-1.283 0.0427,-2.51369 0.15227,-3.68593 0.33805,-3.7031 0.96595,-7.33952 1.67574,-10.91901 1.87337,-9.48666 4.42445,-18.89005 8.02884,-27.9248 0,-1e-5 0,-1e-5 10e-6,-2e-5 3.81463,-9.56879 8.54959,-18.8675 14.78003,-27.20019 9.39807,-12.52613 21.19816,-22.93526 33.41747,-32.43806 10.42698,-8.12589 22.6324,-14.05077 35.62355,-16.76337 1e-5,0 2e-5,0 3e-5,0 4.69774,-0.97726 9.46538,-1.54585 14.23626,-1.779 1e-5,0 1e-5,0 2e-5,0 3.46369,-0.16833 6.88827,-0.13468 10.26569,-0.13629 3.21363,-0.003 6.47298,-0.0351 9.7713,0.12293 4.78969,0.23104 9.57398,0.79828 14.29072,1.75942 10e-6,1e-5 2e-5,1e-5 4e-5,1e-5 13.13021,2.68209 25.54789,8.51914 36.11591,16.72892 12.23515,9.48808 24.05557,19.8874 33.48337,32.41669 6.25118,8.33846 11.00624,17.64411 14.83747,27.21865 0,10e-6 0,2e-5 10e-6,3e-5 3.49787,8.72414 6.45167,17.69126 8.64382,26.86157 0.80799,3.3598 1.54916,6.82084 1.86669,10.40495 0.10875,1.14271 0.16705,2.39259 0.0198,3.72538 0.0685,0.70602 -0.26462,1.84673 -1.34368,3.07598 -2e-5,1e-5 -4e-5,3e-5 -6e-5,4e-5 -1.07376,0.81396 -2.04645,1.11864 -2.70286,1.17296 -1.1385,0.23083 -2.2185,0.34078 -3.21807,0.44344 -10e-6,0 -2e-5,0 -3e-5,0 -3.08799,0.32933 -6.12049,0.66582 -9.04477,1.27234 -9.66513,1.97746 -18.69712,6.80697 -26.20903,13.32642 -3.63279,3.15328 -6.88011,6.77413 -9.8124,10.65462 -3.45978,4.57909 -6.61075,9.45965 -9.88571,14.32847 l -3.51622,-2.3675 c 3.25051,-4.82283 6.45315,-9.76217 10.03949,-14.50306 3.07876,-4.0704 6.53055,-7.89998 10.42496,-11.28051 7.99832,-6.9438 17.66999,-12.07224 28.12333,-14.22682 3.17565,-0.64631 6.34184,-0.99923 9.44688,-1.32186 1.02,-0.10995 1.96594,-0.19768 2.81635,-0.37688 0.58411,-0.20143 0.91991,-0.18578 0.79326,-0.21282 0,0 0,0 0,0 -0.11572,0.37382 -0.2346,0.10031 -0.0139,-0.47297 0.11346,-0.85785 0.0521,-1.82683 -0.029,-2.88203 -0.27208,-3.24076 -0.97641,-6.50293 -1.75611,-9.80689 -2.12508,-8.94981 -5.0064,-17.7305 -8.42654,-26.3014 -3.73684,-9.34561 -8.3054,-18.34821 -14.2808,-26.31185 -9.05491,-12.11432 -20.614,-22.27818 -32.69446,-31.70225 -10.08918,-7.85692 -21.95492,-13.46089 -34.46327,-16.02507 -4.50163,-0.92515 -9.08784,-1.4739 -13.69624,-1.70367 -3.14597,-0.15794 -6.34196,-0.12851 -9.58036,-0.13136 -3.40546,-0.002 -6.76735,-0.0414 -10.07862,0.118 -4.59147,0.2197 -9.16038,0.75657 -13.64037,1.68409 0,10e-6 -10e-6,10e-6 -2e-5,10e-6 -12.36708,2.55035 -24.05711,8.2163 -34.07326,15.99062 -12.09631,9.40934 -23.67573,19.5634 -32.76038,31.68089 -5.99615,7.96941 -10.58478,16.97894 -14.33822,26.3303 0,10e-6 0,2e-5 -10e-6,3e-5 -3.5151,8.76398 -6.01473,17.9476 -7.87335,27.26398 0,10e-6 0,2e-5 -1e-5,3e-5 -0.69975,3.52224 -1.31425,7.03161 -1.63558,10.53868 -0.10059,1.12614 -0.18248,2.20385 -0.14403,3.22741 0,10e-6 0,2e-5 0,3e-5 0.16097,0.72638 -0.004,1.05149 -0.0266,0.71524 0,0 -1e-5,0 -1e-5,-10e-6 -0.29024,-0.0912 0.0195,-0.15789 0.58188,0.11306 0.85879,0.21781 1.82232,0.32377 2.8592,0.45098 3.20281,0.37869 6.47188,0.70895 9.75953,1.2951 9.92159,1.76749 19.53142,5.80662 27.37282,12.27281 5.05431,4.16944 9.90476,8.77592 13.78239,14.24789 5.02981,7.15104 8.3958,15.22737 11.15388,23.32611 3.04834,8.88992 6.50506,17.62675 11.29615,25.55396 3.85129,6.36909 8.66319,12.17428 14.54611,16.57975 5.32629,3.98511 11.26558,7.17607 17.63473,8.53117 8.12465,1.77907 16.71984,1.11773 25.22347,-0.005 9.23817,-1.24476 18.60684,-1.89407 27.97578,-1.45651 5.65453,0.24739 11.51334,0.75377 17.08066,2.74672 0,0 10e-6,10e-6 10e-6,10e-6 1.91328,0.70598 3.5741,1.71618 5.1105,2.68597 1.87733,1.17056 3.68187,2.3975 5.47902,3.57895 10e-6,10e-6 10e-6,10e-6 2e-5,10e-6 1.57281,1.02926 3.08041,2.03776 4.63609,2.80596 0.54034,0.25589 0.99372,0.47801 1.38244,0.54969 0.26907,-0.081 0.25281,0.0649 -0.23529,0.19527 -2e-5,3e-5 -4e-5,5e-5 -5e-5,8e-5 -0.35394,0.50545 -0.50938,0.5653 -0.3234,0.33046 0,0 0,-10e-6 10e-6,-10e-6 0.0613,-0.27145 0.0719,-0.62274 0.0879,-1.04115 0.0359,-1.33877 -0.0766,-2.72789 -0.20348,-4.16256 -0.39462,-4.38166 -1.06838,-8.76048 -1.80703,-13.15076 -0.0762,-0.45218 -0.15333,-0.90418 -0.23145,-1.35599 -0.83829,-4.84849 -1.72851,-9.41311 -2.6595,-13.69813 -0.9276,-4.25442 -1.82712,-8.19874 -3.02355,-11.7531 -1.30228,-3.90035 -3.04437,-7.33838 -4.87303,-10.40653 -1.82866,-3.06816 -3.74807,-5.76558 -5.56762,-8.15604 -2.4458,-3.19436 -4.77329,-5.83919 -6.88238,-7.94652 -2.1091,-2.10732 -3.99696,-3.68795 -5.55741,-4.86896 -1.56045,-1.181 -2.79132,-1.96852 -3.61827,-2.47818 -0.82694,-0.50966 -1.24874,-0.74375 -1.24874,-0.74375 z" id="path3958" style="color:#000000;fill:#000000;fill-opacity:1;fill-rule:nonzero;stroke:none;stroke-width:1;marker:none;visibility:visible;display:inline;overflow:visible;enable-background:accumulate" />
            <path d="m 401.74194,653.55257 c 0.19336,-0.47334 0.41954,-0.94391 0.68187,-1.40812 1.18704,-1.91682 2.72783,-3.3272 4.25017,-4.39252 2.73801,-1.88587 5.92843,-2.47232 8.83364,-2.1707 0,0 0,0 0,0 1.2509,0.10699 2.47761,0.3258 3.66918,0.64003 1.0961,0.28905 1.96282,0.91953 2.44017,1.63182 0.47735,0.71229 0.5727,1.49807 0.26616,2.17158 -0.30653,0.67351 -0.93874,1.11504 -1.67286,1.34237 -0.73411,0.22732 -1.56907,0.24313 -2.40445,0.0195 -0.90814,-0.24309 -1.82451,-0.40877 -2.73814,-0.48061 -2.00685,-0.10423 -4.00166,0.14658 -5.2468,1.16375 0,0 0,0 0,0 -1.20843,0.92494 -2.26522,1.8026 -2.79818,2.79435 -0.13604,0.20943 -0.25224,0.44026 -0.35189,0.68889 -0.25442,0.63473 -0.66764,1.2421 -1.22524,1.72829 -0.55759,0.48619 -1.24798,0.83522 -1.98633,0.786 -0.73835,-0.0492 -1.39599,-0.50624 -1.77105,-1.31544 -0.37507,-0.8092 -0.43984,-1.99087 0.0537,-3.19921 z" id="path4043" style="color:#000000;fill:#000000;fill-opacity:1;fill-rule:nonzero;stroke:none;stroke-width:1;marker:none;visibility:visible;display:inline;overflow:visible;enable-background:accumulate" />
            <path d="m 445.03212,585.8788 c -19.66295,0.34828 -33.08778,7.16372 -48.69779,24.16691 24.66621,-13.4102 30.81173,18.70151 52.91972,20.16336 22.10799,-1.46185 28.25351,-33.57356 52.91972,-20.16336 -15.61001,-17.00319 -29.03484,-23.81863 -48.69779,-24.16691 -1.37023,-0.0242 -2.78799,0.0324 -4.22193,0 -1.43394,0.0324 -2.85169,-0.0242 -4.22193,0 z" id="path4163" style="color:#000000;fill:#ab2302;fill-opacity:1;fill-rule:nonzero;stroke:none;stroke-width:1;marker:none;visibility:visible;display:inline;overflow:visible;enable-background:accumulate" />
            <path d="m 398.84375,185.03125 c -1.52164,1.57313 -3.06088,3.19608 -4.625,4.96875 -19.54142,22.14696 -14.6875,62.90625 -14.6875,62.90625 3.06261,0.10833 6.25256,0.90203 9.5,2.1875 -1.65127,-3.01839 -3.40829,-7.91771 -4.375,-15.8125 -2.14285,-17.5 2.83036,-36.78571 10.6875,-47.5 1.61987,-2.20891 2.73432,-4.49889 3.5,-6.75 z" transform="translate(0,422.35975)" id="path3923" style="opacity:0.6;color:#000000;fill:#ab2202;fill-opacity:1;fill-rule:nonzero;stroke:none;stroke-width:1;marker:none;visibility:visible;display:inline;overflow:visible;enable-background:accumulate" />
            <path d="m 499.66436,607.391 c 1.52164,1.57313 3.06088,3.19608 4.625,4.96875 19.54142,22.14696 14.6875,62.90625 14.6875,62.90625 -3.06261,0.10833 -6.25256,0.90203 -9.5,2.1875 1.65127,-3.01839 3.40829,-7.91771 4.375,-15.8125 2.14285,-17.5 -2.83036,-36.78571 -10.6875,-47.5 -1.61987,-2.20891 -2.73432,-4.49889 -3.5,-6.75 z" id="path3928" style="opacity:0.6;color:#000000;fill:#ab2202;fill-opacity:1;fill-rule:nonzero;stroke:none;stroke-width:1;marker:none;visibility:visible;display:inline;overflow:visible;enable-background:accumulate" />
            <path d="m 491.8373,655.55293 c -0.0997,-0.24863 -0.21585,-0.47946 -0.35189,-0.68889 -0.53296,-0.99175 -1.58975,-1.86941 -2.79818,-2.79435 -1.24514,-1.01717 -3.23995,-1.26798 -5.2468,-1.16375 0,0 0,0 0,0 -0.91363,0.0718 -1.83,0.23752 -2.73814,0.48061 -0.83538,0.22361 -1.67034,0.2078 -2.40445,-0.0195 -0.73412,-0.22732 -1.36632,-0.66886 -1.67286,-1.34237 -0.30653,-0.67351 -0.21118,-1.45928 0.26616,-2.17158 0.47735,-0.71229 1.34407,-1.34277 2.44017,-1.63182 1.19157,-0.31423 2.41828,-0.53304 3.66918,-0.64003 0,0 0,0 0,0 2.90521,-0.30162 6.09563,0.28483 8.83364,2.1707 0,0 0,0 0,0 1.52234,1.06532 3.06313,2.4757 4.25017,4.39252 0.26233,0.46421 0.48851,0.93478 0.68187,1.40812 0.49359,1.20834 0.42882,2.39001 0.0538,3.19921 -0.37506,0.8092 -1.0327,1.26622 -1.77105,1.31544 -0.73835,0.0492 -1.42874,-0.29981 -1.98633,-0.786 -0.5576,-0.48619 -0.97082,-1.09356 -1.22524,-1.72829 z" id="path3995" style="color:#000000;fill:#000000;fill-opacity:1;fill-rule:nonzero;stroke:none;stroke-width:1;marker:none;visibility:visible;display:inline;overflow:visible;enable-background:accumulate" />
        </g>
    </g>
</svg>
